<?xml version="1.0" encoding="UTF-8"?>
<svg id="_Слой_1" data-name="Слой 1" xmlns="http://www.w3.org/2000/svg" viewBox="0 0 118.42 52.54">
  <defs>
    <style>
      .cls-1 {
        stroke-width: 0px;
      }
    </style>
  </defs>
  <g>
    <polygon class="cls-1" points="33.42 30.82 33.42 8.81 33.33 8.81 26.85 30.82 17.62 30.82 11.14 8.81 11.05 8.81 11.05 30.82 0 30.82 0 0 17.14 0 22.19 17.92 22.28 17.92 27.33 0 44.47 0 44.47 30.82 33.42 30.82"/>
    <polygon class="cls-1" points="61.03 19.73 61.03 30.82 48.86 30.82 48.86 0 80.07 0 80.07 7.51 61.03 7.51 61.03 12.22 78.56 12.22 78.56 19.73 61.03 19.73"/>
    <polygon class="cls-1" points="94.98 30.82 94.98 7.51 83.71 7.51 83.71 0 118.42 0 118.42 7.51 107.16 7.51 107.16 30.82 94.98 30.82"/>
  </g>
  <g>
    <path class="cls-1" d="m11.44,43.57l-1.26.74c-.96-1.26-2.34-1.89-4.15-1.89-1.36,0-2.44.4-3.25,1.19-.81.79-1.22,1.84-1.22,3.14s.42,2.33,1.25,3.15,1.9,1.24,3.22,1.24c1.77,0,3.15-.64,4.15-1.93l1.28.74c-1.22,1.74-3.01,2.61-5.36,2.61-1.79,0-3.26-.52-4.4-1.57-1.14-1.05-1.7-2.46-1.7-4.23s.57-3.15,1.72-4.2c1.15-1.04,2.61-1.56,4.38-1.56,2.38,0,4.16.86,5.34,2.59Z"/>
    <path class="cls-1" d="m23.83,42.58c1.16,1.07,1.74,2.46,1.74,4.18s-.58,3.11-1.74,4.18c-1.16,1.07-2.63,1.6-4.4,1.6s-3.23-.53-4.4-1.6c-1.16-1.07-1.74-2.46-1.74-4.18s.58-3.11,1.74-4.18c1.16-1.07,2.63-1.6,4.4-1.6s3.23.53,4.4,1.6Zm-8.98,4.18c.01,1.36.45,2.43,1.31,3.21s1.95,1.18,3.28,1.18,2.41-.4,3.27-1.19c.86-.79,1.3-1.86,1.3-3.2s-.43-2.41-1.3-3.2c-.86-.79-1.95-1.19-3.27-1.19s-2.42.39-3.28,1.18-1.29,1.85-1.31,3.21Z"/>
    <path class="cls-1" d="m28.01,41.24h6.42c1.26,0,2.32.39,3.17,1.17.85.78,1.28,1.78,1.28,3.02,0,.89-.22,1.66-.66,2.3-.44.64-1.03,1.13-1.77,1.45l1.75,3.09h-1.71l-1.5-2.67h-5.42v2.67h-1.55v-11.03Zm1.55,1.44v5.48h4.84c.88,0,1.58-.24,2.11-.73.53-.49.8-1.15.8-2s-.27-1.5-.81-2-1.24-.75-2.1-.75h-4.84Z"/>
    <path class="cls-1" d="m41.25,41.24h6.42c1.26,0,2.32.39,3.17,1.17.85.78,1.28,1.78,1.28,3.02s-.43,2.26-1.28,3.02c-.85.77-1.91,1.15-3.17,1.15h-4.86v2.67h-1.55v-11.03Zm1.55,1.44v5.48h4.84c.88,0,1.58-.24,2.11-.73.53-.49.8-1.15.8-2s-.27-1.5-.81-2-1.24-.75-2.1-.75h-4.84Z"/>
    <path class="cls-1" d="m64.66,42.58c1.16,1.07,1.75,2.46,1.75,4.18s-.58,3.11-1.75,4.18c-1.16,1.07-2.63,1.6-4.39,1.6s-3.23-.53-4.4-1.6c-1.16-1.07-1.74-2.46-1.74-4.18s.58-3.11,1.74-4.18c1.16-1.07,2.63-1.6,4.4-1.6s3.23.53,4.39,1.6Zm-8.98,4.18c.01,1.36.45,2.43,1.31,3.21s1.95,1.18,3.28,1.18,2.4-.4,3.27-1.19c.86-.79,1.3-1.86,1.3-3.2s-.43-2.41-1.3-3.2c-.87-.79-1.96-1.19-3.27-1.19s-2.42.39-3.28,1.18-1.29,1.85-1.31,3.21Z"/>
    <path class="cls-1" d="m68.84,41.24h6.42c1.26,0,2.32.39,3.17,1.17s1.28,1.78,1.28,3.02c0,.89-.22,1.66-.66,2.3-.44.64-1.03,1.13-1.77,1.45l1.75,3.09h-1.71l-1.49-2.67h-5.42v2.67h-1.56v-11.03Zm1.56,1.44v5.48h4.84c.88,0,1.58-.24,2.11-.73.53-.49.8-1.15.8-2s-.27-1.5-.81-2c-.54-.5-1.24-.75-2.1-.75h-4.84Z"/>
    <path class="cls-1" d="m86.48,41.24h3.61l4.69,11.03h-1.63l-.78-1.79h-8.23l-.78,1.79h-1.67l4.8-11.03Zm.96,1.42l-2.71,6.38h6.98l-2.63-6.38h-1.63Z"/>
    <path class="cls-1" d="m94.82,41.24h11.34v1.44h-4.88v9.59h-1.58v-9.59h-4.88v-1.44Z"/>
    <path class="cls-1" d="m108.39,41.24h9.73v1.42h-8.17v3.25h7.34v1.42h-7.34v3.51h8.47v1.43h-10.03v-11.03Z"/>
  </g>
</svg>